<svg xmlns="http://www.w3.org/2000/svg" xmlns:xlink="http://www.w3.org/1999/xlink" version="1.1" width="1080" height="1080" viewBox="0 0 1080 1080" xml:space="preserve">
<desc>Created with Fabric.js 3.5.0</desc>
<defs>
</defs>
<rect x="0" y="0" width="100%" height="100%" fill="#ffffff"/>
<g transform="matrix(7.6705 0 0 7.6705 540.0029 540.0029)" id="833447">
<g style="" vector-effect="non-scaling-stroke">
		<g transform="matrix(1 0 0 1 -39.5561 -36.1035)">
<path style="stroke: none; stroke-width: 1; stroke-dasharray: none; stroke-linecap: butt; stroke-dashoffset: 0; stroke-linejoin: miter; stroke-miterlimit: 4; is-custom-font: none; font-file-url: none; fill: rgb(224,224,224); fill-rule: nonzero; opacity: 1;" transform=" translate(-24.4439, -27.8965)" d="M 26.54 15.7 s 0.79 -4.27 2.36 -6.74 s 4.16 -5.28 4.94 -4.94 c 0.79 0.34 1.57 3.48 4.5 9.78 s 7.87 14.83 7.75 20.45 s -2.25 8.43 -2.25 8.43 s -6.05 9.99 -17.5 9.06 c -9.3 -0.75 -13.45 -3.86 -18.55 -6.57 c -2.13 -1.13 -4.75 -1.25 -4.97 -2.38 c -0.22 -1.12 1.1 -2.95 2.14 -4.16 c 1.75 -2.04 5.46 -3.28 6.93 -5.91 s 1.48 -6.62 3.86 -9.97 c 4.42 -6.19 10.79 -7.05 10.79 -7.05 z" stroke-linecap="round"/>
</g>
		<g transform="matrix(1 0 0 1 -28.0214 -39.5352)">
<path style="stroke: none; stroke-width: 1; stroke-dasharray: none; stroke-linecap: butt; stroke-dashoffset: 0; stroke-linejoin: miter; stroke-miterlimit: 4; is-custom-font: none; font-file-url: none; fill: rgb(255,255,255); fill-rule: nonzero; opacity: 1;" transform=" translate(-35.9786, -24.4648)" d="M 33.23 13.68 c -0.91 -0.1 -2.14 2.33 -1.96 4.04 s 1.65 4.44 3.31 7.96 c 1.96 4.16 3.42 9.98 5.27 9.55 c 1.84 -0.43 0.37 -6.18 -1.22 -10.59 c -1.61 -4.41 -4.24 -10.84 -5.4 -10.96 z" stroke-linecap="round"/>
</g>
		<g transform="matrix(1 0 0 1 -40.1012 -36.0382)">
<path style="stroke: none; stroke-width: 1; stroke-dasharray: none; stroke-linecap: butt; stroke-dashoffset: 0; stroke-linejoin: miter; stroke-miterlimit: 4; is-custom-font: none; font-file-url: none; fill: rgb(255,255,255); fill-rule: nonzero; opacity: 1;" transform=" translate(-23.8988, -27.9618)" d="M 29.17 35.06 c 1.49 -0.72 0.8 -3.98 -0.37 -7.96 s -1.9 -5.87 -4.16 -6.31 c -2.2 -0.43 -3.73 0.86 -4.9 2.51 s -2.02 3.61 -1.96 4.71 c 0.06 1.1 0.37 1.84 2.02 2.51 c 0.99 0.4 2.5 0.88 3.98 1.84 c 1.71 1.1 3.73 3.49 5.39 2.7 z" stroke-linecap="round"/>
</g>
		<g transform="matrix(1 0 0 1 -46.5927 -22.9068)">
<path style="stroke: none; stroke-width: 1; stroke-dasharray: none; stroke-linecap: butt; stroke-dashoffset: 0; stroke-linejoin: miter; stroke-miterlimit: 4; is-custom-font: none; font-file-url: none; fill: rgb(255,255,255); fill-rule: nonzero; opacity: 1;" transform=" translate(-17.4073, -41.0932)" d="M 10.94 37.06 c -1.6 0 -4.29 2.08 -3.8 3.61 c 0.55 1.72 4.27 1.62 8.69 2.51 c 6.98 1.41 11.23 3.02 11.88 0.98 c 0.43 -1.35 -5.2 -3.61 -8.63 -4.78 c -2.57 -0.86 -6.18 -2.32 -8.14 -2.32 z" stroke-linecap="round"/>
</g>
		<g transform="matrix(1 0 0 1 36.6856 37.0058)">
<path style="stroke: none; stroke-width: 1; stroke-dasharray: none; stroke-linecap: butt; stroke-dashoffset: 0; stroke-linejoin: miter; stroke-miterlimit: 4; is-custom-font: none; font-file-url: none; fill: rgb(224,224,224); fill-rule: nonzero; opacity: 1;" transform=" translate(-100.6855, -101.0058)" d="M 81.73 81.65 c -4.85 5.17 -7.37 12.51 -2.6 21.25 c 3.73 6.82 8.65 9.22 11.68 14.07 c 3.03 4.85 2.67 7.81 3.45 7.74 c 0.77 -0.07 3.24 -2.53 4.5 -5.21 c 1.27 -2.67 0.77 -5.07 2.04 -6.61 s 5.49 -1.76 7.95 -4.71 s 2.11 -5.42 4.36 -7.74 c 2.25 -2.32 5.56 -3.03 7.81 -5.63 s 4.29 -5.91 3.8 -6.68 c -0.49 -0.77 -2.25 -0.35 -7.46 -1.9 c -5.21 -1.55 -15.69 -8.3 -23.5 -8.86 c -5.49 -0.4 -8.86 0.91 -12.03 4.28 z" stroke-linecap="round"/>
</g>
		<g transform="matrix(1 0 0 1 38.6667 24.6078)">
<path style="stroke: none; stroke-width: 1; stroke-dasharray: none; stroke-linecap: butt; stroke-dashoffset: 0; stroke-linejoin: miter; stroke-miterlimit: 4; is-custom-font: none; font-file-url: none; fill: rgb(255,255,255); fill-rule: nonzero; opacity: 1;" transform=" translate(-102.6667, -88.6078)" d="M 89.74 83.42 c -0.81 1.43 7.27 3.2 11.68 6 s 6.87 5.45 8.55 5.45 s 6.01 -2.44 5.66 -4.19 s -3.19 -1.7 -4.42 -2.07 c -1.39 -0.43 -7.46 -3.33 -9.55 -4.25 c -3.02 -1.35 -10.62 -3.23 -11.92 -0.94 z" stroke-linecap="round"/>
</g>
		<g transform="matrix(1 0 0 1 32.7469 32.3942)">
<path style="stroke: none; stroke-width: 1; stroke-dasharray: none; stroke-linecap: butt; stroke-dashoffset: 0; stroke-linejoin: miter; stroke-miterlimit: 4; is-custom-font: none; font-file-url: none; fill: rgb(255,255,255); fill-rule: nonzero; opacity: 1;" transform=" translate(-96.7469, -96.3941)" d="M 89.31 89.88 c -0.82 0.92 1.55 3.47 5.69 7.89 c 4.49 4.8 6.63 6.44 8.59 4.49 c 1.78 -1.78 0.31 -3.87 -3.33 -6.61 c -2.65 -2 -9.98 -6.85 -10.95 -5.77 z" stroke-linecap="round"/>
</g>
		<g transform="matrix(1 0 0 1 28.258 41.4394)">
<path style="stroke: none; stroke-width: 1; stroke-dasharray: none; stroke-linecap: butt; stroke-dashoffset: 0; stroke-linejoin: miter; stroke-miterlimit: 4; is-custom-font: none; font-file-url: none; fill: rgb(255,255,255); fill-rule: nonzero; opacity: 1;" transform=" translate(-92.258, -105.4394)" d="M 87.76 97.56 c -1.3 0.47 1.24 6.85 2.09 9.59 c 0.85 2.75 2.48 6.19 4.18 6.19 c 1.7 0 3.33 -2.09 3.06 -4.22 s -3.8 -5.87 -4.76 -7.04 c -1.36 -1.66 -3.72 -4.83 -4.57 -4.52 z" stroke-linecap="round"/>
</g>
		<g transform="matrix(1 0 0 1 -2.9931 1.1324)">
<path style="stroke: none; stroke-width: 1; stroke-dasharray: none; stroke-linecap: butt; stroke-dashoffset: 0; stroke-linejoin: miter; stroke-miterlimit: 4; is-custom-font: none; font-file-url: none; fill: rgb(255,89,96); fill-rule: nonzero; opacity: 1;" transform=" translate(-61.0069, -65.1324)" d="M 39.09 44.82 c -6.47 6.72 -8.63 13.58 -7.9 22.97 c 0.95 12.07 14.11 27.36 29.97 27.01 c 12.8 -0.28 20.09 -6.7 23.41 -11.37 c 3.06 -4.3 7.29 -10.97 6.22 -21.12 c -1.28 -12.18 -13.96 -26.76 -29.25 -26.85 c -12.22 -0.08 -17.48 4.2 -22.45 9.36 z" stroke-linecap="round"/>
</g>
		<g transform="matrix(1 0 0 1 -23.185 -8.255)">
<path style="stroke: none; stroke-width: 1; stroke-dasharray: none; stroke-linecap: butt; stroke-dashoffset: 0; stroke-linejoin: miter; stroke-miterlimit: 4; is-custom-font: none; font-file-url: none; fill: rgb(254,124,132); fill-rule: nonzero; opacity: 1;" transform=" translate(-40.815, -55.745)" d="M 40.82 54 c -4.42 9.69 -9.69 12.85 -9.69 12.85 s 0.1 1.98 0.5 3.81 c 0.47 2.15 1.22 3.85 1.22 3.85 s 5.65 -4.17 9.13 -10.22 c 3.78 -6.57 6.2 -12.13 7.15 -17.09 c 0.95 -4.96 1.37 -10.22 1.37 -10.22 s -1.67 0.52 -3.67 1.56 c -1.59 0.83 -2.39 1.49 -2.39 1.49 s 0.07 5.89 -3.62 13.97 z" stroke-linecap="round"/>
</g>
		<g transform="matrix(1 0 0 1 -13.4709 -2.9052)">
<path style="stroke: none; stroke-width: 1; stroke-dasharray: none; stroke-linecap: butt; stroke-dashoffset: 0; stroke-linejoin: miter; stroke-miterlimit: 4; is-custom-font: none; font-file-url: none; fill: rgb(254,124,132); fill-rule: nonzero; opacity: 1;" transform=" translate(-50.5291, -61.0948)" d="M 57.34 35.63 s 0.75 4.09 -1.17 11.9 c -0.93 3.78 -2.46 8.74 -5.04 14.22 c -2.31 4.92 -4.53 8.43 -6.46 11.34 c -4.53 6.85 -7.65 8.79 -7.65 8.79 s 1.01 1.4 2.04 2.52 s 2.37 2.34 2.37 2.34 s 5.3 -2.89 12.31 -15.45 s 8.89 -20.42 9.65 -25.8 c 0.77 -5.38 0.64 -9.89 0.64 -9.89 s -1.79 -0.16 -3.33 -0.15 c -1.91 0.01 -3.36 0.18 -3.36 0.18 z" stroke-linecap="round"/>
</g>
		<g transform="matrix(1 0 0 1 -1.9481 1.66)">
<path style="stroke: none; stroke-width: 1; stroke-dasharray: none; stroke-linecap: butt; stroke-dashoffset: 0; stroke-linejoin: miter; stroke-miterlimit: 4; is-custom-font: none; font-file-url: none; fill: rgb(254,124,132); fill-rule: nonzero; opacity: 1;" transform=" translate(-62.0519, -65.66)" d="M 71.03 37.39 s -0.45 15.85 -7.47 29.7 c -6.53 12.88 -16.6 23.78 -16.6 23.78 s 1.4 0.91 3.26 1.72 c 2.12 0.92 3.94 1.34 3.94 1.34 s 2.29 -2.1 5.68 -6.95 c 2.84 -4.08 6.95 -9.85 10.61 -18.2 c 2.99 -6.81 4.28 -12 5.3 -16.42 c 1.63 -7.05 1.38 -11.62 1.38 -11.62 s -1.11 -0.9 -2.95 -1.87 c -1.79 -0.96 -3.15 -1.48 -3.15 -1.48 z" stroke-linecap="round"/>
</g>
		<g transform="matrix(1 0 0 1 10.665 6.565)">
<path style="stroke: none; stroke-width: 1; stroke-dasharray: none; stroke-linecap: butt; stroke-dashoffset: 0; stroke-linejoin: miter; stroke-miterlimit: 4; is-custom-font: none; font-file-url: none; fill: rgb(254,124,132); fill-rule: nonzero; opacity: 1;" transform=" translate(-74.665, -70.565)" d="M 83.3 46.33 s -0.39 10.78 -7.32 26.44 c -2.69 6.07 -5.04 9.94 -7.32 13.26 c -4.21 6.12 -7.5 8.77 -7.5 8.77 s 2.79 -0.09 5 -0.44 c 2.45 -0.39 4.37 -1.02 4.37 -1.02 s 5.57 -5.68 10.86 -17.37 c 5.08 -11.22 6.78 -22.35 6.78 -22.35 s -0.75 -1.76 -2.17 -3.82 c -1.1 -1.6 -2.7 -3.47 -2.7 -3.47 z" stroke-linecap="round"/>
</g>
		<g transform="matrix(1 0 0 1 -5.6761 -15.7786)">
<path style="stroke: none; stroke-width: 1; stroke-dasharray: none; stroke-linecap: butt; stroke-dashoffset: 0; stroke-linejoin: miter; stroke-miterlimit: 4; is-custom-font: none; font-file-url: none; fill: rgb(255,255,255); fill-rule: nonzero; opacity: 1;" transform=" translate(-58.3239, -48.2214)" d="M 55.7 41.92 c -5.44 1.19 -10.95 5.01 -12.33 8.46 c -1.4 3.5 1.01 5.24 3.4 4.51 c 2.39 -0.74 5.61 -4.19 10.76 -5.11 c 5.15 -0.92 9.52 -0.41 11.68 0.18 s 3.93 0.42 4.38 -1.24 c 0.43 -1.58 -0.43 -3.71 -4.06 -5.57 c -4 -2.04 -9.83 -2.1 -13.83 -1.23 z" stroke-linecap="round"/>
</g>
		<g transform="matrix(1 0 0 1 -2.9881 1.1374)">
<path style="stroke: none; stroke-width: 1; stroke-dasharray: none; stroke-linecap: butt; stroke-dashoffset: 0; stroke-linejoin: miter; stroke-miterlimit: 4; is-custom-font: none; font-file-url: none; fill: rgb(255,255,255); fill-rule: nonzero; opacity: 0.5;" transform=" translate(-61.0119, -65.1374)" d="M 90.8 62.31 c -1.28 -12.18 -13.96 -26.76 -29.25 -26.85 c -12.23 -0.08 -17.49 4.21 -22.46 9.37 c -6.47 6.72 -8.63 13.58 -7.9 22.97 c 0.95 12.07 14.11 27.36 29.97 27.01 c 12.8 -0.28 20.09 -6.7 23.41 -11.37 c 3.07 -4.31 7.3 -10.98 6.23 -21.13 z m -9.54 18.63 c -2.88 4.04 -9.18 9.6 -20.26 9.84 c -13.72 0.3 -25.11 -12.93 -25.94 -23.38 c -0.64 -8.12 1.23 -14.06 6.83 -19.88 c 4.3 -4.47 8.85 -8.17 19.43 -8.1 c 13.23 0.08 24.21 12.7 25.31 23.24 c 0.94 8.79 -2.73 14.56 -5.37 18.28 z" stroke-linecap="round"/>
</g>
</g>
</g>
</svg>